<svg width="108" height="109" viewBox="0 0 108 109" fill="none" xmlns="http://www.w3.org/2000/svg">
<g filter="url(#filter0_d_703_60)">
<mask id="path-1-outside-1_703_60" maskUnits="userSpaceOnUse" x="4" y="0" width="100" height="101" fill="black">
<rect fill="white" x="4" width="100" height="101"/>
<path d="M4 16C4 7.71573 10.7157 1 19 1H89C97.2843 1 104 7.71573 104 16V86C104 94.2843 97.2843 101 89 101H19C10.7157 101 4 94.2843 4 86V16Z"/>
</mask>
<path d="M4 16C4 7.71573 10.7157 1 19 1H89C97.2843 1 104 7.71573 104 16V86C104 94.2843 97.2843 101 89 101H19C10.7157 101 4 94.2843 4 86V16Z" fill="white"/>
<path d="M4 16C4 7.16344 11.1634 0 20 0H88C96.8366 0 104 7.16344 104 16C104 8.26801 97.2843 2 89 2H19C10.7157 2 4 8.26801 4 16ZM104 101H4H104ZM4 101V1V101ZM104 1V101V1Z" fill="#F2F2F4" mask="url(#path-1-outside-1_703_60)"/>
</g>
<defs>
<filter id="filter0_d_703_60" x="0" y="0" width="108" height="109" filterUnits="userSpaceOnUse" color-interpolation-filters="sRGB">
<feFlood flood-opacity="0" result="BackgroundImageFix"/>
<feColorMatrix in="SourceAlpha" type="matrix" values="0 0 0 0 0 0 0 0 0 0 0 0 0 0 0 0 0 0 127 0" result="hardAlpha"/>
<feOffset dy="4"/>
<feGaussianBlur stdDeviation="2"/>
<feComposite in2="hardAlpha" operator="out"/>
<feColorMatrix type="matrix" values="0 0 0 0 0 0 0 0 0 0 0 0 0 0 0 0 0 0 0.25 0"/>
<feBlend mode="normal" in2="BackgroundImageFix" result="effect1_dropShadow_703_60"/>
<feBlend mode="normal" in="SourceGraphic" in2="effect1_dropShadow_703_60" result="shape"/>
</filter>
</defs>
</svg>
