<svg width="24" height="22" viewBox="0 0 24 22" fill="none" xmlns="http://www.w3.org/2000/svg">
<path d="M8.39961 9.6C9.34896 9.6 10.277 9.31849 11.0663 8.79106C11.8557 8.26363 12.4709 7.51397 12.8342 6.63688C13.1975 5.7598 13.2926 4.79468 13.1074 3.86357C12.9222 2.93246 12.465 2.07718 11.7937 1.40589C11.1224 0.734597 10.2672 0.277442 9.33604 0.0922328C8.40493 -0.0929762 7.43981 0.00207975 6.56273 0.36538C5.68564 0.728681 4.93599 1.34391 4.40856 2.13326C3.88112 2.92262 3.59961 3.85065 3.59961 4.8C3.59961 6.07304 4.10532 7.29394 5.0055 8.19412C5.90567 9.09429 7.12657 9.6 8.39961 9.6Z" fill="#231F20"/>
<path d="M18.0004 12.0001C18.7124 12.0001 19.4084 11.7889 20.0004 11.3933C20.5925 10.9978 21.0539 10.4355 21.3264 9.77771C21.5988 9.1199 21.6701 8.39606 21.5312 7.69773C21.3923 6.99939 21.0494 6.35794 20.546 5.85447C20.0425 5.351 19.401 5.00813 18.7027 4.86922C18.0044 4.73032 17.2805 4.80161 16.6227 5.07408C15.9649 5.34656 15.4027 5.80798 15.0071 6.4C14.6115 6.99201 14.4004 7.68804 14.4004 8.40005C14.4004 9.35483 14.7797 10.2705 15.4548 10.9456C16.1299 11.6208 17.0456 12.0001 18.0004 12.0001Z" fill="#231F20"/>
<path d="M22.8 20.4001C23.1183 20.4001 23.4235 20.2737 23.6485 20.0486C23.8736 19.8236 24 19.5184 24 19.2001C23.999 18.0786 23.6838 16.9798 23.0899 16.0284C22.4961 15.077 21.6475 14.311 20.6404 13.8175C19.6333 13.3239 18.5081 13.1225 17.3923 13.2361C16.2766 13.3497 15.215 13.7737 14.328 14.4601C13.1526 13.2893 11.6569 12.4928 10.0294 12.171C8.40191 11.8492 6.71558 12.0165 5.18307 12.6519C3.65056 13.2872 2.3405 14.3621 1.41809 15.741C0.495683 17.12 0.00224423 18.7411 0 20.4001C0 20.7184 0.126428 21.0236 0.351472 21.2486C0.576515 21.4737 0.88174 21.6001 1.2 21.6001H15.6C15.9183 21.6001 16.2235 21.4737 16.4485 21.2486C16.6736 21.0236 16.8 20.7184 16.8 20.4001" fill="#231F20"/>
</svg>
