<svg width="24" height="24" viewBox="0 0 24 24" fill="none" xmlns="http://www.w3.org/2000/svg">
<path d="M3.59961 15V13.2H5.39961V15H3.59961Z" fill="#282828"/>
<path fill-rule="evenodd" clip-rule="evenodd" d="M16.8 24H2.4C1.07452 24 0 22.9255 0 21.6V2.4C0 1.07452 1.07452 0 2.4 0H16.8C18.1255 0 19.2 1.07452 19.2 2.4V21.6C19.2 22.9255 18.1255 24 16.8 24ZM8.4 5.4C8.4 5.06862 8.66862 4.8 9 4.8H16.2C16.5314 4.8 16.8 5.06862 16.8 5.4C16.8 5.73138 16.5314 6 16.2 6H9C8.66862 6 8.4 5.73138 8.4 5.4ZM9 7.2C8.66862 7.2 8.4 7.46862 8.4 7.8C8.4 8.13138 8.66862 8.4 9 8.4H16.2C16.5314 8.4 16.8 8.13138 16.8 7.8C16.8 7.46862 16.5314 7.2 16.2 7.2H9ZM7.02426 4.97574C7.25856 5.21004 7.25856 5.58996 7.02426 5.82426L4.2 8.64852L2.57573 7.02426C2.34142 6.78996 2.34142 6.41004 2.57573 6.17574C2.81005 5.94144 3.18995 5.94144 3.42427 6.17574L4.2 6.95148L6.17574 4.97574C6.41004 4.74144 6.78996 4.74144 7.02426 4.97574ZM9 12C8.66862 12 8.4 12.2686 8.4 12.6C8.4 12.9314 8.66862 13.2 9 13.2H16.2C16.5314 13.2 16.8 12.9314 16.8 12.6C16.8 12.2686 16.5314 12 16.2 12H9ZM8.4 15C8.4 14.6686 8.66862 14.4 9 14.4H16.2C16.5314 14.4 16.8 14.6686 16.8 15C16.8 15.3314 16.5314 15.6 16.2 15.6H9C8.66862 15.6 8.4 15.3314 8.4 15ZM6 12H3C2.66863 12 2.4 12.2686 2.4 12.6V15.6C2.4 15.9314 2.66863 16.2 3 16.2H6C6.33138 16.2 6.6 15.9314 6.6 15.6V12.6C6.6 12.2686 6.33138 12 6 12Z" fill="#282828"/>
<path fill-rule="evenodd" clip-rule="evenodd" d="M24.0004 21.6L22.2004 24L20.4004 21.6V10.8H24.0004V21.6Z" fill="#282828"/>
<path fill-rule="evenodd" clip-rule="evenodd" d="M21.6004 6.59998H22.8004C23.4632 6.59998 24.0004 7.13722 24.0004 7.79998V10.2H20.4004V7.79998C20.4004 7.13722 20.9376 6.59998 21.6004 6.59998Z" fill="#282828"/>
</svg>
