<svg width="24" height="28" viewBox="0 0 24 28" fill="none" xmlns="http://www.w3.org/2000/svg">
<path d="M3.42857 0C3.18857 0 2.98286 0.0342857 2.77714 0.102857C1.44 0.377143 0.377143 1.44 0.102857 2.77714C0 2.98286 0 3.18857 0 3.42857V22.2857C0 25.1314 2.29714 27.4286 5.14286 27.4286H24V24H5.14286C4.18286 24 3.42857 23.2457 3.42857 22.2857C3.42857 21.3257 4.18286 20.5714 5.14286 20.5714H24V1.71429C24 0.754286 23.2457 0 22.2857 0H20.5714V10.2857L17.1429 6.85714L13.7143 10.2857V0H3.42857Z" fill="#282828"/>
</svg>
