<svg width="24" height="28" viewBox="0 0 24 28" fill="none" xmlns="http://www.w3.org/2000/svg">
<path d="M0 24.8571C0 26.2768 1.15179 27.4286 2.57143 27.4286H21.4286C22.8482 27.4286 24 26.2768 24 24.8571V10.2857H0V24.8571ZM3.42857 14.5714C3.42857 14.1 3.81429 13.7143 4.28571 13.7143H9.42857C9.9 13.7143 10.2857 14.1 10.2857 14.5714V19.7143C10.2857 20.1857 9.9 20.5714 9.42857 20.5714H4.28571C3.81429 20.5714 3.42857 20.1857 3.42857 19.7143V14.5714ZM21.4286 3.42857H18.8571V0.857143C18.8571 0.385714 18.4714 0 18 0H16.2857C15.8143 0 15.4286 0.385714 15.4286 0.857143V3.42857H8.57143V0.857143C8.57143 0.385714 8.18571 0 7.71429 0H6C5.52857 0 5.14286 0.385714 5.14286 0.857143V3.42857H2.57143C1.15179 3.42857 0 4.58036 0 6V8.57143H24V6C24 4.58036 22.8482 3.42857 21.4286 3.42857Z" fill="#282828"/>
</svg>
