<svg width="160" height="43" viewBox="0 0 160 43" fill="none" xmlns="http://www.w3.org/2000/svg">
<rect x="1.5" y="1.5" width="157" height="40" rx="11.5" fill="white" stroke="#2B4EA2" stroke-width="3"/>
<path d="M36.2812 24.5742H38.5312C38.4141 25.6523 38.1055 26.6172 37.6055 27.4688C37.1055 28.3203 36.3984 28.9961 35.4844 29.4961C34.5703 29.9883 33.4297 30.2344 32.0625 30.2344C31.0625 30.2344 30.1523 30.0469 29.332 29.6719C28.5195 29.2969 27.8203 28.7656 27.2344 28.0781C26.6484 27.3828 26.1953 26.5508 25.875 25.582C25.5625 24.6055 25.4062 23.5195 25.4062 22.3242V20.625C25.4062 19.4297 25.5625 18.3477 25.875 17.3789C26.1953 16.4023 26.6523 15.5664 27.2461 14.8711C27.8477 14.1758 28.5703 13.6406 29.4141 13.2656C30.2578 12.8906 31.207 12.7031 32.2617 12.7031C33.5508 12.7031 34.6406 12.9453 35.5312 13.4297C36.4219 13.9141 37.1133 14.5859 37.6055 15.4453C38.1055 16.2969 38.4141 17.2852 38.5312 18.4102H36.2812C36.1719 17.6133 35.9688 16.9297 35.6719 16.3594C35.375 15.7812 34.9531 15.3359 34.4062 15.0234C33.8594 14.7109 33.1445 14.5547 32.2617 14.5547C31.5039 14.5547 30.8359 14.6992 30.2578 14.9883C29.6875 15.2773 29.207 15.6875 28.8164 16.2188C28.4336 16.75 28.1445 17.3867 27.9492 18.1289C27.7539 18.8711 27.6562 19.6953 27.6562 20.6016V22.3242C27.6562 23.1602 27.7422 23.9453 27.9141 24.6797C28.0938 25.4141 28.3633 26.0586 28.7227 26.6133C29.082 27.168 29.5391 27.6055 30.0938 27.9258C30.6484 28.2383 31.3047 28.3945 32.0625 28.3945C33.0234 28.3945 33.7891 28.2422 34.3594 27.9375C34.9297 27.6328 35.3594 27.1953 35.6484 26.625C35.9453 26.0547 36.1562 25.3711 36.2812 24.5742ZM54.75 20.9297V22.0078C54.75 23.2891 54.5898 24.4375 54.2695 25.4531C53.9492 26.4688 53.4883 27.332 52.8867 28.043C52.2852 28.7539 51.5625 29.2969 50.7188 29.6719C49.8828 30.0469 48.9453 30.2344 47.9062 30.2344C46.8984 30.2344 45.9727 30.0469 45.1289 29.6719C44.293 29.2969 43.5664 28.7539 42.9492 28.043C42.3398 27.332 41.8672 26.4688 41.5312 25.4531C41.1953 24.4375 41.0273 23.2891 41.0273 22.0078V20.9297C41.0273 19.6484 41.1914 18.5039 41.5195 17.4961C41.8555 16.4805 42.3281 15.6172 42.9375 14.9062C43.5469 14.1875 44.2695 13.6406 45.1055 13.2656C45.9492 12.8906 46.875 12.7031 47.8828 12.7031C48.9219 12.7031 49.8594 12.8906 50.6953 13.2656C51.5391 13.6406 52.2617 14.1875 52.8633 14.9062C53.4727 15.6172 53.9375 16.4805 54.2578 17.4961C54.5859 18.5039 54.75 19.6484 54.75 20.9297ZM52.5117 22.0078V20.9062C52.5117 19.8906 52.4062 18.9922 52.1953 18.2109C51.9922 17.4297 51.6914 16.7734 51.293 16.2422C50.8945 15.7109 50.4062 15.3086 49.8281 15.0352C49.2578 14.7617 48.6094 14.625 47.8828 14.625C47.1797 14.625 46.543 14.7617 45.9727 15.0352C45.4102 15.3086 44.9258 15.7109 44.5195 16.2422C44.1211 16.7734 43.8125 17.4297 43.5938 18.2109C43.375 18.9922 43.2656 19.8906 43.2656 20.9062V22.0078C43.2656 23.0312 43.375 23.9375 43.5938 24.7266C43.8125 25.5078 44.125 26.168 44.5312 26.707C44.9453 27.2383 45.4336 27.6406 45.9961 27.9141C46.5664 28.1875 47.2031 28.3242 47.9062 28.3242C48.6406 28.3242 49.293 28.1875 49.8633 27.9141C50.4336 27.6406 50.9141 27.2383 51.3047 26.707C51.7031 26.168 52.0039 25.5078 52.207 24.7266C52.4102 23.9375 52.5117 23.0312 52.5117 22.0078ZM71.2617 12.9375V30H68.9883L60.3984 16.8398V30H58.1367V12.9375H60.3984L69.0234 26.1328V12.9375H71.2617ZM77.5312 12.9375V30H75.2695V12.9375H77.5312ZM84.6797 20.6133V22.4648H77.0391V20.6133H84.6797ZM85.8398 12.9375V14.7891H77.0391V12.9375H85.8398ZM90.9609 12.9375V30H88.6992V12.9375H90.9609ZM95.0742 12.9375H100.723C102.004 12.9375 103.086 13.1328 103.969 13.5234C104.859 13.9141 105.535 14.4922 105.996 15.2578C106.465 16.0156 106.699 16.9492 106.699 18.0586C106.699 18.8398 106.539 19.5547 106.219 20.2031C105.906 20.8438 105.453 21.3906 104.859 21.8438C104.273 22.2891 103.57 22.6211 102.75 22.8398L102.117 23.0859H96.8086L96.7852 21.2461H100.793C101.605 21.2461 102.281 21.1055 102.82 20.8242C103.359 20.5352 103.766 20.1484 104.039 19.6641C104.312 19.1797 104.449 18.6445 104.449 18.0586C104.449 17.4023 104.32 16.8281 104.062 16.3359C103.805 15.8438 103.398 15.4648 102.844 15.1992C102.297 14.9258 101.59 14.7891 100.723 14.7891H97.3359V30H95.0742V12.9375ZM105.047 30L100.898 22.2656L103.254 22.2539L107.461 29.8594V30H105.047ZM110.578 12.9375H112.77L118.359 26.8477L123.938 12.9375H126.141L119.203 30H117.492L110.578 12.9375ZM109.863 12.9375H111.797L112.113 23.3438V30H109.863V12.9375ZM124.91 12.9375H126.844V30H124.594V23.3438L124.91 12.9375Z" fill="#2B4EA2"/>
</svg>
