<svg width="25" height="24" viewBox="0 0 25 24" fill="none" xmlns="http://www.w3.org/2000/svg">
<path d="M3.62305 15V13.2H5.42305V15H3.62305Z" fill="#282828"/>
<path fill-rule="evenodd" clip-rule="evenodd" d="M16.837 24H2.42203C1.09517 24 0.0195312 22.9255 0.0195312 21.6V2.4C0.0195312 1.07452 1.09517 0 2.42203 0H16.837C18.1639 0 19.2395 1.07452 19.2395 2.4V21.6C19.2395 22.9255 18.1639 24 16.837 24ZM8.42828 5.4C8.42828 5.06862 8.69718 4.8 9.02891 4.8H16.2364C16.5681 4.8 16.837 5.06862 16.837 5.4C16.837 5.73138 16.5681 6 16.2364 6H9.02891C8.69718 6 8.42828 5.73138 8.42828 5.4ZM9.02891 7.2C8.69718 7.2 8.42828 7.46862 8.42828 7.8C8.42828 8.13138 8.69718 8.4 9.02891 8.4H16.2364C16.5681 8.4 16.837 8.13138 16.837 7.8C16.837 7.46862 16.5681 7.2 16.2364 7.2H9.02891ZM7.05111 4.97574C7.28565 5.21004 7.28565 5.58996 7.05111 5.82426L4.22391 8.64852L2.59795 7.02426C2.36339 6.78996 2.36339 6.41004 2.59795 6.17574C2.83251 5.94144 3.2128 5.94144 3.44736 6.17574L4.22391 6.95148L6.2017 4.97574C6.43625 4.74144 6.81656 4.74144 7.05111 4.97574ZM9.02891 12C8.69718 12 8.42828 12.2686 8.42828 12.6C8.42828 12.9314 8.69718 13.2 9.02891 13.2H16.2364C16.5681 13.2 16.837 12.9314 16.837 12.6C16.837 12.2686 16.5681 12 16.2364 12H9.02891ZM8.42828 15C8.42828 14.6686 8.69718 14.4 9.02891 14.4H16.2364C16.5681 14.4 16.837 14.6686 16.837 15C16.837 15.3314 16.5681 15.6 16.2364 15.6H9.02891C8.69718 15.6 8.42828 15.3314 8.42828 15ZM6.02578 12H3.02266C2.69094 12 2.42203 12.2686 2.42203 12.6V15.6C2.42203 15.9314 2.69094 16.2 3.02266 16.2H6.02578C6.35751 16.2 6.62641 15.9314 6.62641 15.6V12.6C6.62641 12.2686 6.35751 12 6.02578 12Z" fill="#282828"/>
<path fill-rule="evenodd" clip-rule="evenodd" d="M24.0442 21.6L22.2423 24L20.4404 21.6V10.8H24.0442V21.6Z" fill="#282828"/>
<path fill-rule="evenodd" clip-rule="evenodd" d="M21.6417 6.6001H22.8429C23.5064 6.6001 24.0442 7.13734 24.0442 7.8001V10.2001H20.4404V7.8001C20.4404 7.13734 20.9782 6.6001 21.6417 6.6001Z" fill="#282828"/>
</svg>
