<svg width="25" height="28" viewBox="0 0 25 28" fill="none" xmlns="http://www.w3.org/2000/svg">
<path d="M3.45363 0C3.21338 0 3.00745 0.0342857 2.80152 0.102857C1.46298 0.377143 0.39902 1.44 0.124449 2.77714C0.0214844 2.98286 0.0214844 3.18857 0.0214844 3.42857V22.2857C0.0214844 25.1314 2.32102 27.4286 5.1697 27.4286H24.0465V24H5.1697C4.2087 24 3.45363 23.2457 3.45363 22.2857C3.45363 21.3257 4.2087 20.5714 5.1697 20.5714H24.0465V1.71429C24.0465 0.754286 23.2914 0 22.3304 0H20.6143V10.2857L17.1822 6.85714L13.7501 10.2857V0H3.45363Z" fill="#0030A5"/>
</svg>
