<svg width="22" height="11" viewBox="0 0 22 11" fill="none" xmlns="http://www.w3.org/2000/svg">
<path d="M0.00283623 1.56098C0.00212097 1.1969 0.129713 0.844055 0.363464 0.563708C0.495092 0.405923 0.656752 0.275496 0.839178 0.179895C1.0216 0.0842939 1.22121 0.0253982 1.42658 0.00658111C1.63194 -0.012236 1.83903 0.00939553 2.03597 0.0702362C2.23291 0.131077 2.41584 0.22993 2.57428 0.361137L10.9785 7.34205L19.3984 0.610457C19.5588 0.48102 19.7433 0.38436 19.9414 0.326032C20.1395 0.267704 20.3472 0.248859 20.5527 0.27058C20.7581 0.292301 20.9572 0.354158 21.1386 0.452598C21.3199 0.551038 21.4798 0.684119 21.6092 0.844192C21.7519 1.00542 21.8596 1.19422 21.9255 1.39876C21.9913 1.6033 22.0139 1.81915 21.9918 2.03278C21.9697 2.2464 21.9034 2.45318 21.7971 2.64014C21.6908 2.82711 21.5468 2.99021 21.374 3.11922L11.9663 10.6455C11.6857 10.8747 11.3338 11 10.9707 11C10.6075 11 10.2556 10.8747 9.97501 10.6455L0.567301 2.85432C0.37755 2.698 0.227554 2.49943 0.12948 2.27472C0.0314064 2.05 -0.011982 1.80548 0.00283623 1.56098Z" fill="#282828"/>
</svg>
