<svg width="11" height="22" viewBox="0 0 11 22" fill="none" xmlns="http://www.w3.org/2000/svg">
<path d="M9.43902 0.00283623C9.8031 0.00212097 10.1559 0.129713 10.4363 0.363464C10.5941 0.495092 10.7245 0.656752 10.8201 0.839178C10.9157 1.0216 10.9746 1.22121 10.9934 1.42658C11.0122 1.63194 10.9906 1.83903 10.9298 2.03597C10.8689 2.23291 10.7701 2.41584 10.6389 2.57428L3.65795 10.9785L10.3895 19.3984C10.519 19.5588 10.6156 19.7433 10.674 19.9414C10.7323 20.1395 10.7511 20.3472 10.7294 20.5527C10.7077 20.7581 10.6458 20.9572 10.5474 21.1386C10.449 21.3199 10.3159 21.4798 10.1558 21.6092C9.99458 21.7519 9.80578 21.8596 9.60124 21.9255C9.3967 21.9913 9.18085 22.0139 8.96722 21.9918C8.7536 21.9697 8.54682 21.9034 8.35986 21.7971C8.17289 21.6908 8.00979 21.5468 7.88078 21.374L0.354481 11.9663C0.125292 11.6857 0 11.3338 0 10.9707C0 10.6075 0.125292 10.2556 0.354481 9.97501L8.14568 0.567301C8.302 0.37755 8.50057 0.227554 8.72528 0.12948C8.95 0.0314064 9.19452 -0.011982 9.43902 0.00283623Z" fill="#A9A9C6"/>
</svg>
