<svg width="25" height="28" viewBox="0 0 25 28" fill="none" xmlns="http://www.w3.org/2000/svg">
<path d="M0.0214844 24.8571C0.0214844 26.2768 1.17447 27.4286 2.59559 27.4286H21.4724C22.8935 27.4286 24.0465 26.2768 24.0465 24.8571V10.2857H0.0214844V24.8571ZM3.45363 14.5714C3.45363 14.1 3.83974 13.7143 4.31166 13.7143H9.45988C9.9318 13.7143 10.3179 14.1 10.3179 14.5714V19.7143C10.3179 20.1857 9.9318 20.5714 9.45988 20.5714H4.31166C3.83974 20.5714 3.45363 20.1857 3.45363 19.7143V14.5714ZM21.4724 3.42857H18.8983V0.857143C18.8983 0.385714 18.5122 0 18.0402 0H16.3242C15.8522 0 15.4661 0.385714 15.4661 0.857143V3.42857H8.60184V0.857143C8.60184 0.385714 8.21573 0 7.74381 0H6.02773C5.55581 0 5.1697 0.385714 5.1697 0.857143V3.42857H2.59559C1.17447 3.42857 0.0214844 4.58036 0.0214844 6V8.57143H24.0465V6C24.0465 4.58036 22.8935 3.42857 21.4724 3.42857Z" fill="#282828"/>
</svg>
