<svg width="25" height="22" viewBox="0 0 25 22" fill="none" xmlns="http://www.w3.org/2000/svg">
<path d="M8.43 9.6C9.38034 9.6 10.3093 9.31849 11.0995 8.79106C11.8897 8.26363 12.5056 7.51397 12.8692 6.63688C13.2329 5.7598 13.3281 4.79468 13.1427 3.86357C12.9573 2.93246 12.4996 2.07718 11.8276 1.40589C11.1557 0.734597 10.2995 0.277442 9.36741 0.0922328C8.43533 -0.0929762 7.46921 0.00207975 6.59121 0.36538C5.71321 0.728681 4.96277 1.34391 4.43479 2.13327C3.90681 2.92262 3.625 3.85065 3.625 4.8C3.625 6.07304 4.13124 7.29394 5.03235 8.19412C5.93346 9.09429 7.15563 9.6 8.43 9.6Z" fill="#231F20"/>
<path d="M18.0403 12.0001C18.753 12.0001 19.4498 11.7889 20.0424 11.3933C20.635 10.9978 21.0969 10.4355 21.3697 9.77771C21.6425 9.1199 21.7138 8.39606 21.5748 7.69773C21.4357 6.99939 21.0925 6.35793 20.5885 5.85447C20.0845 5.351 19.4424 5.00813 18.7433 4.86922C18.0443 4.73032 17.3197 4.80161 16.6612 5.07408C16.0027 5.34656 15.4399 5.80798 15.0439 6.4C14.6479 6.99201 14.4365 7.68804 14.4365 8.40005C14.4365 9.35483 14.8162 10.2705 15.492 10.9456C16.1679 11.6208 17.0845 12.0001 18.0403 12.0001Z" fill="#231F20"/>
<path d="M22.8452 20.4001C23.1638 20.4001 23.4694 20.2737 23.6946 20.0486C23.9199 19.8236 24.0465 19.5184 24.0465 19.2001C24.0455 18.0786 23.7299 16.9798 23.1355 16.0284C22.541 15.077 21.6915 14.311 20.6834 13.8175C19.6753 13.3239 18.5488 13.1225 17.4319 13.2361C16.315 13.3497 15.2523 13.7737 14.3644 14.4601C13.1878 13.2893 11.6905 12.4928 10.0613 12.171C8.43215 11.8492 6.74406 12.0165 5.20996 12.6519C3.67585 13.2872 2.36442 14.3621 1.44105 15.741C0.517684 17.12 0.0237309 18.7411 0.0214844 20.4001C0.0214844 20.7184 0.148044 21.0236 0.373322 21.2486C0.5986 21.4737 0.904143 21.6001 1.22273 21.6001H15.6377C15.9563 21.6001 16.2619 21.4737 16.4871 21.2486C16.7124 21.0236 16.839 20.7184 16.839 20.4001" fill="#231F20"/>
</svg>
