<svg width="40" height="38" viewBox="0 0 40 38" fill="none" xmlns="http://www.w3.org/2000/svg">
<path d="M0 7.30513C0 3.30311 3.43054 0.0588379 7.66234 0.0588379H32.3377C36.5694 0.0588379 40 3.30311 40 7.30513V30.6407C40 34.6426 36.5694 37.8869 32.3377 37.8869H7.66234C3.43054 37.8869 0 34.6426 0 30.6407V7.30513ZM31.0103 13.1731C31.568 12.6456 31.568 11.7902 31.0103 11.2626C30.4523 10.7349 29.5477 10.7349 28.9897 11.2626L15.7143 23.8173L11.0101 19.3684C10.4523 18.841 9.54774 18.841 8.98986 19.3684C8.43194 19.8961 8.43194 20.7516 8.98986 21.2793L14.7041 26.6833C15.262 27.2107 16.1665 27.2107 16.7244 26.6833L31.0103 13.1731Z" fill="#2B4EA2"/>
</svg>
